{"title":"Luther (2003) XviD - Ita Eng Ac3 5.1 - Sub Ita Eng","uid":8455809,"size":1998513141,"categoryP":"video","categoryS":"movies","magnet":"?xt=urn:btih:c2463b03bbc18ff879c6b9eacfe2d250e786ac2b&amp;dn=Luther+%282003%29+XviD+-+Ita+Eng+Ac3+5.1+-+Sub+Ita+Eng&amp;tr=udp%3A%2F%2Ftracker.openbittorrent.com%3A80&amp;tr=udp%3A%2F%2Fopen.demonii.com%3A1337&amp;tr=udp%3A%2F%2Ftracker.coppersurfer.tk%3A6969&amp;tr=udp%3A%2F%2Fexodus.desync.com%3A6969","seeders":0,"leechers":1,"uploader":"venomz","files":3,"time":1368105201,"description":"General\nComplete name : Luther (2003)Luther (2003).avi\nFormat : AVI\nFormat/Info : Audio Video Interleave\nFile size : 1.85 GiB\nDuration : 1h 58mn\nOverall bit rate : 2 244 Kbps\nWriting application : VirtualDubMod 1.5.4.1 (build 2178/release)\nWriting library : VirtualDubMod build 2178/release\n\nVideo\nID : 0\nFormat : MPEG-4 Visual\nFormat profile : Advanced Simple@L5\nFormat settings, BVOP : Yes\nFormat settings, QPel : No\nFormat settings, GMC : No warppoints\nFormat settings, Matrix : Custom\nCodec ID : XVID\nCodec ID/Hint : XviD\nDuration : 1h 58mn\nBit rate : 1 339 Kbps\nWidth : 720 pixels\nHeight : 416 pixels\nDisplay aspect ratio : 16:9\nFrame rate : 25.000 fps\nColor space : YUV\nChroma subsampling : 4:2:0\nBit depth : 8 bits\nScan type : Progressive\nBits/(Pixel*Frame) : 0.179\nStream size : 1.11 GiB (60%)\nWriting library : XviD 1.2.1 (UTC 2008-12-04)\n\nAudio #1\nID : 1\nFormat : AC-3\nFormat/Info : Audio Coding 3\nMode extension : CM (complete main)\nCodec ID : 2000\nDuration : 1h 58mn\nBit rate mode : Constant\nBit rate : 448 Kbps\nChannel(s) : 6 channels\nChannel positions : Front: L C R, Side: L R, LFE\nSampling rate : 48.0 KHz\nBit depth : 16 bits\nStream size : 379 MiB (20%)\nAlignment : Aligned on interleaves\nInterleave, duration : 96 ms (2.40 video frames)\nInterleave, preload duration : 96 ms\nLanguage : Italian\n\nAudio #2\nID : 2\nFormat : AC-3\nFormat/Info : Audio Coding 3\nMode extension : CM (complete main)\nCodec ID : 2000\nDuration : 1h 58mn\nBit rate mode : Constant\nBit rate : 448 Kbps\nChannel(s) : 6 channels\nChannel positions : Front: L C R, Side: L R, LFE\nSampling rate : 48.0 KHz\nBit depth : 16 bits\nStream size : 379 MiB (20%)\nAlignment : Aligned on interleaves\nInterleave, duration : 96 ms (2.40 video frames)\nInterleave, preload duration : 96 ms\nLanguage : English","torrent":{"xt":"urn:btih:c2463b03bbc18ff879c6b9eacfe2d250e786ac2b","amp;dn":"Luther+%282003%29+XviD+-+Ita+Eng+Ac3+5.1+-+Sub+Ita+Eng","amp;tr":["udp%3A%2F%2Ftracker.openbittorrent.com%3A80","udp%3A%2F%2Fopen.demonii.com%3A1337","udp%3A%2F%2Ftracker.coppersurfer.tk%3A6969","udp%3A%2F%2Fexodus.desync.com%3A6969"],"infoHash":"c2463b03bbc18ff879c6b9eacfe2d250e786ac2b","infoHashBuffer":{"type":"Buffer","data":[194,70,59,3,187,193,143,248,121,198,185,234,207,226,210,80,231,134,172,43]},"announce":[],"urlList":[]}}